<?xml version="1.0" encoding="utf-8"?>
<!-- Generator: Adobe Illustrator 18.1.1, SVG Export Plug-In . SVG Version: 6.00 Build 0)  -->
<!DOCTYPE svg PUBLIC "-//W3C//DTD SVG 1.1//EN" "http://www.w3.org/Graphics/SVG/1.1/DTD/svg11.dtd">
<svg version="1.1" id="Layer_1" xmlns="http://www.w3.org/2000/svg" xmlns:xlink="http://www.w3.org/1999/xlink" x="0px" y="0px"
	 viewBox="0 0 283.5 283.5" enable-background="new 0 0 283.5 283.5" xml:space="preserve">
<g>
	<path fill="#F39200" d="M270.6,167.8c-0.7,23.3-9,46.6-29,60.4c-20.3,13.9-46.2,11.5-69.5,13.9c-31.9,3.2-64.3,1-96.2-2.8
		c-18.7-2.2-35.3-8.2-47.5-23.1c-11.2-13.7-15.5-30.8-16-48.2c-0.8-28.8,16.5-56.2,37-77c16.4-16.6,55.9-18.7,61.3-18.6
		c6.9,0.1,16.4,2.9,20.3,5.3c0.2,0.1,0.4,0.1,0.5-0.1c0.5-0.7,1-1.4,1.5-2.1c2.6-3.9,5.3-7.7,7.9-11.6c3.1-4.5,20-26.3,25.8-23.1
		c2.8,1.5,6.7,15,5,18.7c-0.8,1.8-10.4,11.5-11.7,13.1c-1.9,2.2-2.1,4.7-1.3,7.2c0.1,0.2,0.3,0.3,0.5,0.2c4.3-2.3,15-4.5,21.7-4.5
		c5,0,35.5-0.3,52.7,15.4C255.1,110.5,271.4,139,270.6,167.8z"/>
	<g>
		<path d="M134.6,121.8c0,8.3-7.9,21-8.3,16.4c-1-9-4.6-16.4-10.3-16.4c-5.7,0-10.3,7.4-10.3,16.4c0,2.4,0.3,4.7,0.9,6.7
			c0.2,0.7-0.5,1.4-1.2,1.1c-8.7-3.5-14.9-13-14.9-24.2c0-14.1,9.9-25.6,22.1-25.6C124.7,96.2,134.6,107.7,134.6,121.8z"/>
		<path d="M157.3,121.8c0,8.3,7.9,21,8.3,16.4c1-9,4.6-16.4,10.3-16.4c5.7,0,10.3,7.4,10.3,16.4c0,2.4-0.3,4.7-0.9,6.7
			c-0.2,0.7,0.5,1.4,1.2,1.1c8.7-3.5,14.9-13,14.9-24.2c0-14.1-9.9-25.6-22.1-25.6C167.2,96.2,157.3,107.7,157.3,121.8z"/>
		<path d="M155.3,155.4c0,5.3-5.5,16.3-12.4,16.3c-6.8,0-12.4-11-12.4-16.3c0-5.3,5.5-9.6,12.4-9.6
			C149.8,145.8,155.3,150.1,155.3,155.4z"/>
		<path d="M237.2,197c0,2-1.1,3.8-2.8,4.8c-0.3,0.2-0.6,0.3-0.9,0.5l-0.6-6.6l-6.5,2.9v7.4c-3.9,1.8-7.8,3.5-11.8,5v-4.6h-7.1v7.2
			c-3.7,1.2-7.4,2.3-11.1,3.3V211h-7.1v7.5c-3.7,0.8-7.4,1.5-11.1,2.1v-5h-7.1v6.1c-3.7,0.5-7.4,0.8-11.1,1.1v-6h-7.1v6.4
			c-3.7,0.1-7.4,0.2-11.1,0.1V218h-7.1v5.1c-3.7-0.2-7.5-0.4-11.1-0.8V214h-7.1v7.5c-3.8-0.5-7.5-1.1-11.1-1.8V210h-7.1v8.1
			c-3.8-0.9-7.5-1.9-11.1-3v-7.3h-7.1v4.9c-4-1.5-7.7-3.1-11.1-4.8v-7.5l-7.1-2.7l0,6.3c-1-0.6-2-1.3-2.9-1.9
			c-1.5-1-2.4-2.7-2.4-4.5l0.3-1.6c1.3-6.8,6.1-12.6,12.7-14.5c0.3-0.1,0.6-0.2,0.9-0.2v13.6h7.1v-10.5c3.5,1.4,7.2,2.7,11.1,3.9
			v12.4h7.1v-10.4c3.6,0.9,7.3,1.7,11.1,2.4v10.3h7.1v-9.1c3.6,0.5,7.3,1,11.1,1.3v10h7.1v-9.5c3.6,0.2,7.3,0.3,11.1,0.4v11.4h7.1
			v-11.4c3.7-0.1,7.4-0.3,11.1-0.6v12.6h7.1v-13.3c3.7-0.4,7.4-0.9,11.1-1.6v8.5h7.1v-9.8c3.7-0.8,7.4-1.7,11.1-2.7v7.8h7.1v-9.9
			c3.7-1.2,7.4-2.5,11.1-4v7.5h7.1v-10.5c0.9-0.1,2,0.1,3,0.3c6.5,1.7,10.9,7.8,10.9,14.6V197z"/>
	</g>
</g>
</svg>
